<svg width="16" height="16" viewBox="0 0 16 16" fill="none" xmlns="http://www.w3.org/2000/svg">
<path d="M2.66666 0H4.66666C6.13941 0 7.33331 1.19391 7.33331 2.66666V4.66666C7.33331 6.13941 6.13941 7.33331 4.66666 7.33331H2.66666C1.19391 7.33334 0 6.13944 0 4.66666V2.66666C0 1.19391 1.19391 0 2.66666 0Z" fill="#343B6E"/>
<path d="M11.3336 0H13.3336C14.8064 0 16.0003 1.19391 16.0003 2.66666V4.66666C16.0003 6.13941 14.8064 7.33331 13.3336 7.33331H11.3336C9.8609 7.33331 8.66699 6.13941 8.66699 4.66666V2.66666C8.66696 1.19391 9.86087 0 11.3336 0Z" fill="#343B6E"/>
<path d="M2.66666 8.66666H4.66666C6.13941 8.66666 7.33331 9.86056 7.33331 11.3333V13.3333C7.33331 14.8061 6.13941 16 4.66666 16H2.66666C1.19391 16 0 14.8061 0 13.3333V11.3333C0 9.86056 1.19391 8.66666 2.66666 8.66666Z" fill="#343B6E"/>
<path d="M11.3336 8.6665H13.3336C14.8064 8.6665 16.0003 9.86041 16.0003 11.3332V13.3332C16.0003 14.8059 14.8064 15.9998 13.3336 15.9998H11.3336C9.8609 15.9998 8.66699 14.8059 8.66699 13.3332V11.3332C8.66696 9.86041 9.86087 8.6665 11.3336 8.6665Z" fill="#343B6E"/>
</svg>
